<?xml version="1.0" standalone="no"?>
<!DOCTYPE svg PUBLIC "-//W3C//DTD SVG 20010904//EN"
 "http://www.w3.org/TR/2001/REC-SVG-20010904/DTD/svg10.dtd">
<svg version="1.0" xmlns="http://www.w3.org/2000/svg"
 width="40" height="40" viewBox="0 0 558.000000 449.000000"
 preserveAspectRatio="xMidYMid meet">

<g transform="translate(0.000000,449.000000) scale(0.100000,-0.100000)"
fill="#f4f7fe" stroke="none">
<path d="M2595 4380 c-109 -8 -237 -25 -300 -39 -22 -5 -67 -14 -100 -21 -33
-6 -73 -15 -90 -20 -16 -5 -61 -19 -100 -31 -299 -90 -638 -268 -855 -448
-150 -124 -305 -289 -408 -435 -60 -84 -57 -148 7 -203 20 -18 38 -23 80 -23
61 0 73 10 173 141 66 86 187 213 271 284 59 50 243 185 252 185 2 0 28 15 57
33 191 121 541 249 788 289 231 36 480 45 685 24 216 -23 250 -29 428 -78 163
-44 215 -64 411 -157 411 -195 746 -520 927 -899 56 -118 60 -148 23 -186
l-27 -26 -2071 0 c-2021 0 -2202 -3 -2273 -31 -126 -51 -209 -115 -271 -208
-75 -112 -87 -154 -87 -296 0 -102 4 -130 24 -187 46 -128 158 -247 285 -303
130 -58 17 -55 2422 -55 l2212 0 42 -22 c58 -31 103 -76 131 -129 28 -55 31
-173 5 -231 -20 -47 -87 -112 -143 -138 -43 -20 -53 -20 -2185 -20 -1966 0
-2147 -1 -2202 -17 -140 -38 -250 -151 -277 -284 -13 -68 -13 -215 2 -294 26
-143 128 -271 269 -339 l85 -41 2030 0 2030 0 77 38 c84 41 180 125 199 174
18 48 3 108 -37 142 -29 26 -43 31 -85 31 -47 0 -54 -4 -103 -50 -93 -88 116
-80 -2084 -80 -2168 0 -1995 -6 -2063 67 -60 63 -69 89 -69 209 l0 106 34 34
34 34 2126 0 c1432 0 2142 3 2178 10 143 29 231 74 321 166 106 108 164 296
138 446 -18 104 -76 220 -144 288 -59 57 -169 130 -198 130 -10 0 -20 4 -23 9
-3 5 -25 12 -48 16 -24 4 -1055 11 -2293 14 l-2250 6 -40 22 c-179 96 -198
348 -36 465 87 62 -76 58 2249 58 2072 0 2118 0 2170 19 164 60 260 230 224
398 -13 57 -84 212 -150 323 -267 454 -741 820 -1297 1002 -103 33 -298 81
-400 98 -38 6 -95 15 -125 20 -76 13 -434 20 -555 10z"/>
</g>
</svg>
